<svg xmlns="http://www.w3.org/2000/svg" height="2666.667" width="4196"><path d="M4195.99 2666.667H0V0h4195.99v2666.667" fill="#fff"/><path d="M3792.956 2563.253h-1782.4c-8.402 0-16.707-.413-24.895-1.213H899.454c-128.92 0-233.431-107.853-233.431-240.893v-55.04c0-159.44-125.244-288.68-279.736-288.68h-.003c-158.373 0-286.762-132.505-286.762-295.93v-.015c0-163.438 128.39-295.932 286.762-295.932h46.978c154.498 0 279.742-129.242 279.742-288.679 0-133.045 104.509-240.896 233.43-240.896h309.13c-77.42-47.572-129.879-139.438-129.879-244.975v-.002c0-154.38 112.233-279.533 250.684-279.533h1759.795c124.375 0 225.206 112.444 225.206 251.144 0 166.219 120.848 300.965 269.909 300.965h45.324c152.81 0 276.689 138.128 276.689 308.52 0 170.39-123.878 308.523-276.69 308.523-149.06 0-269.883 134.746-269.883 300.958v57.386c0 78.08-31.963 147.84-82.105 193.894h468.342c140.94 0 255.181 114.267 255.181 255.199 0 140.947-114.241 255.2-255.181 255.2M769.434 1871.241c-17.417 0-31.53 13.841-31.53 30.92v19.625c0 17.082 14.113 30.922 31.53 30.922l216.273-.082h129.366v-4.96h-.82s-12.618-5.691-12.618-35.839c0-23.934 12.619-35.546 12.619-35.546h-.44c.263-.013.402-.013.402-.013l.857-.015v-4.932h-11.414c-.457-.052-.922-.08-1.393-.08h-47.806c17.422 0 31.544-10.974 31.544-24.52v-15.573c0-12.773-12.54-23.254-28.563-24.428h60.35v-3.96h-.724s-11.148-4.546-11.148-28.64c0-19.12 11.148-28.386 11.148-28.386h-.4c.239-.012.366-.012.366-.012l.757-.015v-3.946h-10.08c-.405-.04-.818-.052-1.235-.052H812.402c-15.386 0-27.858 11.051-27.858 24.693v15.679c0 12.668 10.751 23.106 24.602 24.534h-87.651c-.475 0-.941.013-1.398.052h-11.412v3.92l.854.014s.147 0 .42.013h-.455s12.624 9.201 12.624 28.2c0 23.921-12.624 28.439-12.624 28.439h-.82v3.934h126.28l219.496.054H769.434M3082.72 510.092c-4.197 0-8.42.132-12.666.4-109.722 6.902-193.094 101.63-186.214 211.584 6.63 105.708 94.224 186.996 198.507 186.996 4.173 0 8.42-.131 12.641-.4 109.722-6.899 193.094-101.63 186.215-211.583-6.631-105.706-94.225-186.997-198.483-186.997" fill="#dce9f8"/><path d="M1227.523 1776.333c-5.38-.013-9.735-2.96-9.726-6.573.008-3.613 4.378-6.533 9.759-6.533 5.38.013 9.733 2.96 9.724 6.573-.008 3.627-4.377 6.547-9.757 6.533zm.061-24.613c3.813.013 6.901 1.92 6.895 4.267-.006 2.346-3.102 4.24-6.916 4.226-3.815-.013-6.902-1.92-6.896-4.266.005-2.347 3.102-4.24 6.917-4.227zm.012-5.187c-7.107-.013-12.888 8.187-12.912 18.307-.025 10.133 5.715 18.36 12.821 18.373 7.107.014 12.888-8.173 12.914-18.306.025-10.134-5.716-18.347-12.823-18.374" fill="#4a6cbd"/><path d="M1198.383 1787.027a44.437 44.437 0 00-4.134 18.586l-.329 134.254c-.02 8.106 6.604 14.693 14.795 14.72l76.769.186c8.19.014 14.847-6.533 14.867-14.64l.329-134.266a44.454 44.454 0 00-4.041-18.6l-98.256-.24" fill="#663199"/><path d="M1198.383 1787.027a44.437 44.437 0 00-4.134 18.586l-.329 134.254c-.02 8.106 6.604 14.693 14.795 14.72l76.769.186c8.19.014 14.847-6.533 14.867-14.64l.329-134.266a44.454 44.454 0 00-4.041-18.6l-98.256-.24" fill="#663199"/><path d="M1300.688 1805.867l-.33 134.266c-.02 8.107-6.683 14.667-14.866 14.64l-76.77-.186c-8.2-.014-14.814-6.614-14.795-14.72l.33-134.254a44.523 44.523 0 014.128-18.586l98.248.253c2.672 5.84 4.071 12.187 4.055 18.587" fill="#f35f52"/><path d="M1214.276 1939.92l.33-134.253a44.415 44.415 0 014.131-18.587l-20.354-.053a44.437 44.437 0 00-4.134 18.586l-.329 134.254c-.02 8.106 6.604 14.693 14.795 14.72l20.354.04c-8.19-.014-14.814-6.6-14.793-14.707" fill="#f47374"/><path d="M1300.688 1805.867l-.33 134.266c-.02 8.107-6.683 14.667-14.866 14.64l-31.388-.066c8.27.013 15.004-6.547 15.023-14.654l.329-134.266c.016-6.4-1.399-12.747-4.09-18.587l31.267.08c2.672 5.84 4.071 12.187 4.055 18.587" fill="#b14a40"/><path d="M1296.639 1787.267l-98.266-.24c.011-4.294 3.535-7.76 7.871-7.747l82.561.2c4.336.013 7.844 3.493 7.834 7.787" fill="#1b375a"/><path d="M1300.423 1913.627l-106.431-.267-.041 16.68 106.432.267.04-16.68" fill="#375491"/><path d="M1101.676 1743.8h11.74c-1.921-1.307-4.324-2.093-6.937-2.093H812.404c-15.385 0-27.859 11.053-27.859 24.693v15.68c0 13.64 12.474 24.693 27.859 24.693l290.785-.08-1.513-62.893" fill="#82a9de"/><path d="M934.724 1741.76c-14.713 0-26.641 10.573-26.641 23.613v17.734c0 13.04 11.928 23.613 26.641 23.613h183.068v-3.96h-.756l-46.54-3.907-9.407-32.72s18.156-18.066 19.342-18.533c1.182-.467 36.605-1.88 36.605-1.88l.756-.013v-3.947H934.724" fill="#4a6cbd"/><path d="M1105.92 1774.12c0-19.12 11.15-28.387 11.15-28.387H938.472c-13.514 0-24.47 9.707-24.47 21.68v13.654c0 11.973 10.956 21.693 24.47 21.693h178.596s-11.149-4.547-11.149-28.64" fill="#f7d99b"/><path d="M914.01 1781.573v-.013.013m-.003-.133l-.002-.067.002.067m-.002-.107l-.001-.12.001.12m-.001-.146l-.001-.12.001.12" fill="#4366ba"/><path d="M914.716 1786.267a19.374 19.374 0 01-.707-4.694v-.013l-.002-.12-.002-.067v-.04l-.001-.12v-.026l-.001-.12v-13.654c0-11.973 10.956-21.68 24.47-21.68h178.596s-111.498 1.4-162.808 10.84c-21.977 4.054-33.522 16.627-39.545 29.694" fill="#cacb9a"/><path d="M1096.835 1873.88h13.285a12.919 12.919 0 00-7.85-2.64H769.434c-17.416 0-31.531 13.84-31.531 30.92v19.627c0 17.08 14.115 30.92 31.53 30.92l329.113-.12-1.712-78.707" fill="#59c69f"/><path d="M907.876 1871.32c-16.652 0-30.152 13.24-30.152 29.56v22.187c0 16.32 13.5 29.56 30.152 29.56h207.199v-4.96h-.856l-52.675-4.894-10.647-40.946s20.55-22.627 21.89-23.214c1.34-.573 41.432-2.346 41.432-2.346l.856-.014v-4.933H907.876" fill="#43927a"/><path d="M1101.637 1911.827c0-23.934 12.62-35.547 12.62-35.547H912.12c-15.296 0-27.696 12.16-27.696 27.16v17.067c0 15 12.4 27.16 27.696 27.16h202.137s-12.62-5.694-12.62-35.84" fill="#f7d99b"/><path d="M884.425 1920.733v-.013.013m-.001-.093v-.027.027" fill="#3c8777"/><path d="M885.232 1927.027a26.702 26.702 0 01-.807-6.2v-.107l-.001-.08v-.027V1903.44c0-15 12.4-27.16 27.696-27.16h202.137s-126.196 1.76-184.268 13.573c-24.874 5.067-37.94 20.814-44.757 37.174" fill="#cacb9a"/><path d="M726.933 1808.693h-13.29c2.173-1.293 4.894-2.08 7.853-2.08h332.967c17.421 0 31.542 10.987 31.542 24.534v15.573c0 13.547-14.121 24.52-31.542 24.52l-329.243-.08 1.713-62.467" fill="#f35f52"/><path d="M915.965 1806.667c16.66 0 30.166 10.506 30.166 23.453v17.613c0 12.96-13.506 23.454-30.166 23.454h-207.28v-3.934h.856l52.696-3.88 10.651-32.493s-20.557-17.96-21.897-18.413c-1.342-.467-41.45-1.867-41.45-1.867l-.856-.013v-3.92h207.28" fill="#b14a40"/><path d="M722.13 1838.813c0-19-12.625-28.2-12.625-28.2H911.72c15.301 0 27.708 9.64 27.708 21.547v13.547c0 11.893-12.407 21.546-27.708 21.546H709.505s12.624-4.52 12.624-28.44" fill="#f7d99b"/><path d="M939.425 1845.96v-.013.013m.002-.08v-.013.013m0-.08v-.013.013" fill="#91433c"/><path d="M938.619 1850.88c-6.82-12.987-19.891-25.48-44.774-29.493-58.094-9.387-184.34-10.774-184.34-10.774H911.72c15.301 0 27.708 9.64 27.708 21.547v13.547l-.001.08v.093l-.002.067v.013a17.151 17.151 0 01-.806 4.92" fill="#cacb9a"/><path d="M1813.867 2558.747l-31.214-5.92 134.88-715.44 31.227 5.92-134.893 715.44M2849.185 2562h37.545l-139.927-724.613-31.205 5.92L2849.185 2562M2161.755 2562h37.55l-139.92-724.613-31.221 5.92L2161.754 2562M2507.083 2562l-30.488.36 134.157-721.722 31.217 5.92L2507.083 2562" fill="#1e4150"/><path d="M2370.881 861.5c123.604 13.24 283.59 27.206 444.164 299.731 175.527 297.863 83.131 742.783-55.39 866.422-138.538 123.64-590.995 276.294-971.35 47.746 0 0-229.652-138.492-111.785-368.36 181.377-353.718 155.746-427.486 236.84-566.112 81.095-138.625 195.14-307.527 457.521-279.426" fill="#f7d99b"/><path d="M2815.045 1161.231c-109.605-186.008-218.917-251.553-316.578-278.64 37.776 39.095 76.067 89.387 114.412 154.44 175.526 297.863 83.112 742.783-55.408 866.423-122.852 109.639-492.6 242.066-839.978 111.253 35.72 39.533 70.812 60.692 70.812 60.692 380.355 228.548 832.812 75.895 971.35-47.746 138.521-123.639 230.917-568.559 55.39-866.422" fill="#f3c267"/><path d="M655.93 1072.613c-3.507 27.64 25.269 49.56 50.86 47.84 28.291-1.92 52.289-25.12 56.426-52.92 4.479-30.093-13.603-54.16-41.575-56.36-27.229-2.146-44.648 22.094-36.782 46.547 5.637 17.533 21.644 24.067 29.706 19.227 6.284-3.76 5.904-13.267-1.704-14.947-3.049-.68-6.192 1.027-7.812 3.36-6.66-2.64-12.997-14.773-8.697-27.853 5.495-16.734 26.636-17.68 39.767-9.88 16.713 9.92 19.34 31.293 13.209 48.333-6.436 17.88-24.001 31.973-43.125 33.333-21.663 1.534-40.727-15.066-42.458-36.653-.409-5.093-7.189-4.973-7.816-.027" fill="#f47374"/><path d="M2560.604 150.287c-127.93-.77-232.017 62.33-232.497 140.93-.24 39.292 25.487 75.022 67.262 101.022l-52.617 115.564 109.808-89.426c31.807 10.328 67.982 16.288 106.349 16.511 127.947.754 232.052-62.346 232.514-140.93.463-78.584-102.888-142.917-230.819-143.67" fill="#f7d99b"/><path d="M2471.985 306.122c11.367 43.123 55.526 68.853 98.632 57.486 43.122-11.368 68.853-55.542 57.485-98.648-11.367-43.122-55.526-68.87-98.632-57.502-43.106 11.368-68.853 55.542-57.485 98.664" fill="#f3c267"/><path d="M2595.047 286.906c6.063 23.043-7.692 46.66-30.735 52.74-23.059 6.08-46.66-7.675-52.74-30.734l83.475-22.006" fill="#ebebe9"/><path d="M1240.024 1266.107l353.23-2.654c8.066-.066 14.546-6.653 14.493-14.72l-1.774-236.146c-.066-8.067-6.653-14.56-14.72-14.494l-353.221 2.654c-8.067.053-14.557 6.64-14.496 14.706l1.772 236.16c.061 8.067 6.65 14.547 14.716 14.494" fill="#f35f52"/><path d="M1595.147 1129.453l114.04 116.214-140.694-26.254z" fill="#f35f52"/><path d="M1492.253 1113.067l-34.333-.614s-43.24-32.293-44.573-43.706c-1.32-11.414 5.773-35.574-.934-38.614-6.706-3.026-20.92-5.426-29.893 9.694-6.52 10.973-1.093 51.013-5.12 53.693-2.533 1.68-22.267 1.88-36.68 1.8a25.467 25.467 0 00-22.648 13.533l-.015.027a13.554 13.554 0 003.282 16.76l7.654 6.4-6.024 8.013c-4.485 5.96-3.318 14.414 2.614 18.947l6.042 4.6-4.137 4.72c-5.33 6.067-4.207 15.427 2.41 20.053l5.369 3.774-.8 1.48c-3.356 6.186-1.432 13.906 4.426 17.786l5.4 3.574 91.414 1.613c8.56.16 17.066-1.44 24.986-4.693l32.254-4.747c3.466-.507 6.026-3.48 6.04-6.987l.213-80.013a7.095 7.095 0 00-6.947-7.093" fill="#fff"/><path d="M1974.013 1314.227l-31.773 95.32 96.84-38.094z" fill="#f68480"/><path d="M2073.84 1030.587c-6.453.266-24.147 6.16-50.013 54.88-33.027 62.213-81.307 250.16-81.307 250.16l144.107 53.48 18.506-39.227 30.494-302s-60-17.373-61.787-17.293" fill="#14293f"/><path d="M2264.321 1003.492c-41.2.062-143.171 12.043-190.478 27.116 0 0-34.768 297.785 31.29 524.06 14.796 50.654-12.228 209.987-12.228 209.987l427.01-5.614s-50.584-385.185-31.538-447.394c19.062-62.214 19.51-279.045 19.51-279.045s-2.922-.448-95.927-16.48c-43.395-7.466-103.625-12.692-147.639-12.63" fill="#1b3659"/><path d="M2314.094 2317.36s-9.456 108.666-26.814 138.76c-17.372 30.093.898 81.24 1.826 88.267.897 7.013 36.555 17.053 93.236 11.027 56.681-6.014 55.769-19.054 51.19-40.12-4.564-21.068-34.73-48.147-36.556-68.2-1.825-20.067 17.373-92.281 17.373-92.281l-100.255-37.453" fill="#f68d82"/><path d="M2141.082 1674.96s-294.765-16.307-360.584 23.413c-65.818 39.734 11.91 121.32 11.91 121.32s239.968 103.973 641.71 127.081c95.132 5.48 103.336-247.213 85.542-268.12-17.778-20.907-378.578-3.694-378.578-3.694" fill="#38816a"/><path d="M2389.425 2563.853c58.357-6.2 51.149-34.773 46.433-56.466-2.943-13.574-19.687-29.587-29.658-44.735-5.211 4.148-13.711 11.454-39.06 18.92-26.325 7.748-62.396-7.586-85.387-17.199-8.184 30.4-8.56 69.16-7.794 75.04.946 7.227 57.095 30.64 115.466 24.44" fill="#375491"/><path d="M2357.194 1885.12c-11.768 88.813-70.072 530.947-70.072 530.947l135.284 16.705s166.382-577.066 157.853-665.333c-8.545-88.266-70.818-95.693-70.818-95.693s-121.07-21.72-152.247 213.374" fill="#43927a"/><path d="M2227.586 627.79s44.952-47.388 81.121 10.272c0 0 27.838-15.64 47.388 12.212 0 0 50.321-15.145 62.533 60.096 0 0 25.897-4.888 29.31 25.897 3.43 30.785-12.21 51.298-12.21 51.298s14.542 10.919 7.94 39.222c-5.625 24.063-25.521 27.717-25.521 27.717s-5.384 40.56-22.965 52.772c-17.58 12.212-41.538 6.362-41.538 6.362s-6.347 21.972-26.875 20.032c-20.528-1.955-45.914-21.506-68.894-12.708-22.964 8.798-82.58-.496-82.58-.496s-66.923-29.793-46.906-98.205c0 0-35.162-31.763-4.377-69.872 0 0-22.483-59.615 21.988-94.791 44.455-35.177 81.586-29.808 81.586-29.808" fill="#1b3659"/><path d="M2235.194 949.55l-8.126 60.375s-18.227 86.971 5.208 103.739c23.448 16.767 99.732-106.214 99.732-106.214l-8.054-152.968-88.76 95.068" fill="#f68d82"/><path d="M2326.553 904.053c-19.369 52.169-65.5 84.241-98.257 96.687l6.894-51.184 88.766-95.074 2.597 49.57" fill="#f35f52"/><path d="M2269.749 693.765c-47.588-16.382-98.32 15.242-105.573 64.3-3.158 21.314-6.013 48.137-6.547 77.454-1.283 70.502 35.215 139.129 67.243 139.129 32.014 0 120.498-45.641 123.7-145.748 1.975-61.792-28.885-117.932-78.823-135.135" fill="#f68d82"/><path d="M2324.973 836.82c0 15.55 10.328 28.16 23.042 28.16 12.713 0 23.026-12.61 23.026-28.16 0-15.565-10.313-28.162-23.026-28.162-12.714 0-23.042 12.597-23.042 28.161" fill="#f68d82"/><path d="M2131.032 658.693c-33.064 26.209-44.667 66.017-25.892 88.922 18.79 22.905 60.814 20.234 93.877-5.96 33.077-26.209 44.667-66.017 25.892-88.922-18.776-22.905-60.814-20.234-93.877 5.96" fill="#1b3659"/><path d="M2512.553 1065.702c-39.92-14.938-59.448 343.575-64.837 491.149-70.707 6.773-193.936.053-224.61-2.254-14.443-1.08-47.709-13.226-62.07-15.092-14.715-1.921-28.037-2.92-35.266-1.667-2.655.465-76.352 30.493-82.654 37.079-7.82 8.174-28.964 28.774-25.397 37.68 3.566 8.92 40.655-24.826 40.655-24.826l18.12-10.134c-22.55 21.974-65.588 50.894-59.399 61.428 6.062 10.279 44.877-19.08 72.53-39.082-23.734 21.361-53.21 59.574-46.413 65.535 6.094 5.359 39.632-38.895 75.473-51.64 13.274-4.72 26.517 8.36 36.976 9.932 7.677 1.161 19.512 3.64 27.045 1.507l38.816-10.96c13.21 1.188 13.546 8.973 26.9 11.814 15.498 3.28 40.912 6.746 60.647 11.547 113.65 27.68 151.553 40.52 186.339 40.506 105.38-.067 111.505-577.252 17.145-612.522" fill="#f68d82"/><path d="M2588.317 1402.28c7.469-151.15 6.37-337.452-78.638-369.238-33.554-12.533-92.684 62.869-82.046 372.305 45.386 3.733 112.017 6.746 160.684-3.067" fill="#1b3659"/><path d="M2112.652 1337.332h8.675l130.29 319.08-8.98-1.36-129.985-317.72" fill="#f68480"/><path d="M1918.467 2410.307s11.8 37.72-9.334 62.666c-21.146 24.947-108.986 49.427-120.506 62.934-11.534 13.507-10.667 25.013-10.667 25.013l246.533-6.76-2.68-74.2-11.36-53.32-91.986-16.333" fill="#f68d82"/><path d="M1893.787 2485.413s63.346 25.534 93.946 10.427c30.6-15.12 29.68-19.32 38.534-13.68 8.853 5.64 12.026 75.2 12.026 75.2l-277.213 8.12c-19.293-.44-29.053-14.6-13.373-26.72 10.746-8.32 23.16-13.88 30.226-17.907 21.68-12.4 115.854-35.44 115.854-35.44" fill="#375491"/><path d="M1927.8 1744.587c-19.053-39.96-62.387-91.987-138.64-60.654-72.72 29.894-92.24 103.347-69.293 178.56 22.946 75.227 174 517.4 179.266 578.187l120.6.8s-21.92-350.12-27.293-434.747c-5.173-81.426-31.653-192.973-64.64-262.146" fill="#43927a"/><path d="M1732.019 1337.33h403.161a26.27 26.27 0 0124.322 16.32l124.129 302.76h222.266c6.223 0 11.258 5.04 11.258 11.254 0 6.2-5.035 11.24-11.258 11.24h-632.578a44.169 44.169 0 01-40.29-26.08l-124.993-278.441c-7.814-17.387 4.91-37.053 23.983-37.053" fill="#f35f52"/><path d="M1949.067 1513.64c2.733 13.6 14.586 22.693 26.506 20.307 11.907-2.374 19.347-15.334 16.627-28.934-2.72-13.6-14.587-22.693-26.493-20.306-11.907 2.373-19.36 15.333-16.64 28.933" fill="#fff"/><path d="M3082.363 909.064c-104.271 0-191.88-81.289-198.497-186.996-6.878-109.96 76.474-204.69 186.212-211.589 4.236-.262 8.472-.403 12.648-.403 104.25 0 191.86 81.295 198.496 187.004 6.88 109.954-76.493 204.685-186.211 211.586-4.236.267-8.472.398-12.648.398" fill="#c4daf2"/><path d="M2941.824 705.661v5.65h-73.383v-5.65h73.383M3297.077 705.654v5.65h-73.385v-5.65h73.385M3085.047 570.084h-5.64v-73.53h5.64v73.53M3085.047 924.645h-5.64v-73.538h5.64v73.538M3088.61 709.586a6.09 6.09 0 01-6.082 6.083 6.09 6.09 0 01-6.082-6.083c0-3.372 2.728-6.101 6.082-6.101 3.354 0 6.083 2.729 6.083 6.101" fill="#1e4150"/><path d="M3082.531 712.294a2.68 2.68 0 01-1.912-.795l-109.166-109.375a2.72 2.72 0 010-3.842 2.686 2.686 0 013.843 0l109.147 109.374a2.72 2.72 0 010 3.843 2.68 2.68 0 01-1.912.795" fill="#1e4150"/><path d="M3117.631 820.123a1.962 1.962 0 01-.995-1.146l-35.286-106.789a1.987 1.987 0 011.264-2.508 1.959 1.959 0 012.489 1.264l35.285 106.788a1.969 1.969 0 01-1.264 2.5 1.922 1.922 0 01-1.493-.109" fill="#1e4150"/><path d="M3464.17 1136.41l15.895-25.917-25.268-10.245-15.874 25.914zm-64.38 23.121l17.773-28.86-14.254-5.786c-3.131-1.265-4.643-4.822-3.369-7.945a6.1 6.1 0 017.948-3.36l16.457 6.673 15.874-25.919-15.248-6.18a6.097 6.097 0 01-3.347-7.946c1.252-3.123 4.816-4.626 7.947-3.36l17.43 7.068 18.443-29.68c1.555-2.523 4.73-3.549 7.472-2.435l2.657 1.08c3.499 1.417 4.88 5.626 2.915 8.842l-17.17 28.005 25.27 10.245 18.465-29.678a6.073 6.073 0 017.45-2.434l2.916 1.18c3.499 1.414 4.881 5.625 2.916 8.839l-17.148 28.007 14.254 5.783c3.131 1.268 4.643 4.827 3.369 7.948-1.274 3.123-4.838 4.628-7.948 3.36l-16.457-6.67-15.636 26.013 15.248 6.18a6.097 6.097 0 013.347 7.946 6.1 6.1 0 01-7.948 3.36l-17.428-7.066-18.854 30.607a6.077 6.077 0 01-7.473 2.456l-3.11-1.264c-3.499-1.416-4.88-5.636-2.894-8.85l17.753-28.86-25.269-10.246-18.832 30.608c-1.577 2.535-4.751 3.574-7.494 2.453l-3.11-1.261c-3.499-1.42-4.881-5.64-2.916-8.853" fill="#1b3659"/><path d="M1841.042 374.503l18.158-41.011-23.475-38.212c-2.666-4.354.814-9.879 5.894-9.36l44.596 4.606 29.103-34.124c3.303-3.896 9.642-2.296 10.723 2.695l9.39 43.855 41.455 17.106c4.725 1.955 5.154 8.472.74 11.034l-38.789 22.498-3.465 44.714c-.4 5.095-6.473 7.524-10.264 4.102l-33.399-29.947-43.588 10.53c-4.961 1.2-9.138-3.82-7.08-8.486" fill="#f47374"/><path d="M3157.074 374.462l13.611-30.747-17.615-28.665c-2.002-3.262.6-7.406 4.424-7.026l33.469 3.463 21.799-25.602c2.482-2.922 7.246-1.721 8.047 2.022l7.046 32.888 31.107 12.832c3.543 1.48 3.863 6.365.56 8.287l-29.105 16.874-2.602 33.53c-.3 3.823-4.844 5.644-7.687 3.082l-25.041-22.46-32.709 7.887c-3.723.901-6.866-2.862-5.304-6.365" fill="#f3c267"/><path d="M3021.807 1253.232l-2.173-25.478-22.2-12.664c-2.532-1.444-2.324-5.16.378-6.29l23.56-9.927 5.177-25.038c.605-2.853 4.195-3.79 6.103-1.587l16.72 19.342 25.413-2.808c2.89-.321 4.893 2.817 3.382 5.31l-13.226 21.88 10.543 23.302c1.19 2.654-1.171 5.532-4.005 4.868l-24.902-5.819-18.913 17.21c-2.154 1.962-5.611.601-5.857-2.3" fill="#f47374"/><path d="M983.55 878.653l9.994-22.546-12.915-21.027c-1.47-2.387.442-5.427 3.236-5.133l24.539 2.533 16-18.787c1.821-2.133 5.305-1.253 5.895 1.494l5.173 24.12 22.803 9.413c2.596 1.067 2.836 4.653.406 6.067l-21.342 12.373-1.906 24.587c-.217 2.813-3.552 4.146-5.644 2.266l-18.362-16.466-23.982 5.786c-2.73.654-5.032-2.106-3.894-4.68" fill="#f3c267"/><path d="M1757.013 837.84l9.987-22.547-12.907-21.013c-1.48-2.4.44-5.44 3.227-5.16l24.547 2.533 16-18.773c1.813-2.133 5.306-1.253 5.893 1.493l5.173 24.12 22.8 9.414c2.6 1.066 2.84 4.653.4 6.066l-21.333 12.374-1.907 24.6c-.213 2.8-3.56 4.133-5.64 2.253l-18.373-16.48-23.973 5.8c-2.734.653-5.04-2.107-3.894-4.68M1371.927 472.466l39.594-5.754 16.278 62.705 58.933-1.257 19.858 44.924 22.742-10.045-26.555-60.095-55.858 1.189-16.934-65.22-59.575 8.638 1.517 24.915" fill="#59c69f"/><path d="M1287.008 1522.68l29.967-26.52 47.998 43.507 48.587-33.374 41.24 26.694 13.507-20.88-55.147-35.694-46.053 31.627-49.931-45.267-45.093 39.907 14.925 20" fill="#1b3659"/><path d="M907.461 1522.76l22.483-36.68-35.761-14.507-22.483 36.68zm-91.125 32.72l25.148-40.84-20.195-8.2c-4.418-1.787-6.548-6.827-4.756-11.24 1.792-4.427 6.828-6.547 11.247-4.76l23.29 9.44 22.48-36.68-21.569-8.747c-4.418-1.786-6.548-6.826-4.757-11.24 1.793-4.426 6.828-6.546 11.248-4.76l24.664 10 26.11-42a8.619 8.619 0 0110.578-3.44l3.765 1.52c4.943 2.014 6.906 7.974 4.119 12.52l-24.285 39.627 35.761 14.507 26.11-42a8.64 8.64 0 0110.578-3.454l4.11 1.667c4.942 2.013 6.905 7.973 4.118 12.52l-24.285 39.64 20.194 8.187c4.42 1.786 6.55 6.826 4.758 11.24-1.792 4.426-6.828 6.546-11.247 4.76l-23.29-9.44-22.138 36.813 21.57 8.747a8.642 8.642 0 014.757 11.253c-1.792 4.413-6.828 6.547-11.247 4.747l-24.664-10-26.67 43.32a8.654 8.654 0 01-10.598 3.48l-4.404-1.787c-4.948-2.013-6.908-7.987-4.108-12.533l25.148-40.84L862.115 1523l-26.67 43.32a8.633 8.633 0 01-10.597 3.467l-4.404-1.774c-4.948-2.013-6.907-7.986-4.108-12.533" fill="#59c69f"/><path d="M3100.788 2072.211c-2.56-22.6-5.598-45.693-16.086-65.853-12.743-24.521-35.134-42.2-54.698-61.68-36.567-36.4-64.708-81.253-81.597-130.04-13.049-37.734-19.563-77.934-37.56-113.561-10.986-21.76-25.964-41.214-38.459-62.147-29.478-49.48-45.546-107.946-85.551-149.36-7.7 50.213 7.527 103.493 40.54 142.026 9.858 11.48 21.283 21.84 28.791 34.987 13.622 23.88 12.38 53 13.985 80.454 3 51.6 17.538 102.495 42.241 147.853 26.25 48.2 64.135 91.121 78.158 144.187 10.527 39.775 7.394 84.389 29.823 118.854 2.427 3.733 5.216 7.481 5.789 11.908.344 2.48-.038 5-.44 7.466-.496 3.2-.993 6.414-1.509 9.614-5.082 32.547-10.374 73.959 17.615 98.32 19.372 16.894 44.324 17.267 58.251-5.16 14.023-22.586 12.781-55.627 11.75-81.04-1.739-42.321-6.267-84.76-11.043-126.828" fill="#43927a"/><path d="M3151.17 2046.027c-10.882-37.68-27.79-73.573-36.252-111.867-8.19-37.146-8.269-75.547-8.288-113.6-.04-41.694-.078-83.386-.098-125.08-.02-25.948-.039-52.053-4.329-77.64-9.223-55.08-37.85-106.014-42.706-161.64-2.106-24.067.332-48.386-2.301-72.388-1.521-13.705-5.031-27.706-11.388-39.878-6.825-13.08-25.682-12.502-31.884.893-13.904 30.132-22.718 62.692-17.102 94.973 3.374 19.36 11.76 37.414 18.038 56.04 27.867 82.933 13.066 174.747 34.653 259.559 6.494 25.6 16.341 50.707 17.492 77.093 2.75 63.174-44.422 120.869-40.113 183.949 3.55 51.72 40.737 94.519 56.337 143.945 8.736 27.667 10.609 57.201 19.969 84.654 7.273 21.347 24.18 47.254 50.448 40.773 24.94-6.146 17.414-26.493 16.302-45.947-3.783-65.773-.234-129.587-18.779-193.839" fill="#38816a"/><path d="M3208.23 2080.561c-1.087-19.585-4.41-39.266-1.671-58.692 2.316-16.401 8.84-31.853 13.513-47.733 8.74-29.773 10.895-61.026 13.01-91.987l11.54-168.839c5.98-87.494 11.982-175.226 28.334-261.36 4.552-23.92 9.647-49.838-1.107-71.679-2.256-4.6-6.727-9.481-11.6-7.947-3.484 1.094-5.196 4.92-6.465 8.36-35.746 97.173-49.259 201.785-89.174 297.32-9.566 22.893-20.682 45.4-25.636 69.705-5.941 29.201-2.679 59.347-1.914 89.134 1.108 42.706-3.06 85.746-14.842 126.799-6.182 21.48-14.44 42.48-17.822 64.575-4.23 27.56-.665 55.625 1.973 83.372a1283.499 1283.499 0 015.135 160.571c-.966 31.495 25.617 30.667 43.218 11.32 12.325-13.533 12.204-28.385 16.433-45.225 13.835-55.293 40.439-97.747 37.075-157.694" fill="#43927a"/><path d="M3042.179 2165.947c-23.513-37.774-70.331-59.24-85.36-101.134-3.827-10.653-5.316-22.12-9.992-32.44-10.371-22.906-33.96-35.854-57.151-46.387-3.206-1.467-6.883.868-6.92 4.414-.076 5.627 2.583 11 7.259 14.148 17.875 12.026 31.432 30.398 37.485 51.119 7.146 24.546 4.054 51.452 12.953 75.425 7.467 20.12 22.853 36.574 30.075 56.787 6.6 18.467 5.92 38.654 9.013 58.041 3.11 19.372 11.728 39.947 29.509 48.146 64.391 29.667 48.288-103.72 33.129-128.12" fill="#38816a"/><path d="M3309.944 2153.48c-1.004 18.255 1.798 37.401-5.352 54.227-4.579 10.774-12.795 19.469-19.548 29.015-23.688 33.533-32.302 81.027-68.7 99.891-2.405 1.255-5.08 2.375-7.757 1.867-3.721-.692-6.168-4.292-7.673-7.786-8.927-20.8 1.087-44.226 7.025-66.08 1.045-3.826 1.902-8.079.083-11.6-2.007-3.867-6.585-5.546-9.7-8.586-6.21-6.04-5.624-16.054-4.39-24.666a561.585 561.585 0 0112.982-63.774c3.157-11.892 6.795-23.893 13.653-34.106 7.547-11.254 18.523-19.654 28.768-28.48 45.347-39.001 80.073-90.28 99.537-146.906 4.203-12.268 7.966-25.214 16.642-34.814 8.698-9.599 24.19-14.533 34.79-7.094 7.526 5.308-23.333 54.948-26.929 60.894-10.286 17.014-10.411 31.814-16.223 50.693-14.238 46.294-44.49 87.721-47.208 137.306" fill="#43927a"/><path d="M3274.058 2174.588c6.73-17.414 13.543-35.053 15.752-53.6 2.456-20.628-.806-41.708 2.725-62.173 4.52-26.307 19.86-49.454 27.436-75.04 5.492-18.48 6.854-37.894 10.137-56.893 9.414-54.32 34.95-107.4 27.622-162.04-1.59-11.88-6.957-25.732-18.745-27.76-10.694-1.839-20.397 7.932-23.184 18.428-2.766 10.491-.702 21.559.062 32.385 2.126 30.2-6.482 61.04-23.948 85.747-16.784 23.745-41.124 41.613-56.215 66.453-18.518 30.48-21.037 67.68-30.471 102.08-18.807 68.4-65.939 128.08-74.527 198.506-3.406 28.027 3.159 62.093 29.026 73.28 74.795 32.385 97.38-95.547 114.33-139.373" fill="#38816a"/><path d="M3143.28 2261.414h-171.654c-11.744 0-20.41 10.974-17.677 22.426l62.573 263.88a18.165 18.165 0 0017.698 14H3240.413c8.42 0 15.74-5.786 17.698-14l62.573-263.88c2.712-11.452-5.933-22.426-17.697-22.426H3143.28" fill="#f35f52"/><path d="M1420.92 1995.653H586.457v-43.093h834.463v43.093M1147.119 2240.28H601.543v-37.707h545.576v37.707" fill="#1e4150"/><path d="M1339.04 2561.92v-587.813h-35.204v587.813h35.204M841.228 2561.92v-587.813h-35.199v587.813h35.199M1053.472 2561.92l189.617-582.76-31.081-10.107-192.907 592.867h34.371M520.08 2561.92l162.181-584.04-31.493-8.747-164.61 592.787h33.922M3094.996 908.668c-109.721 6.9-204.25-76.642-211.145-186.595-6.874-109.951 76.49-204.684 186.211-211.578 109.722-6.915 204.25 76.632 211.145 186.587 6.895 109.955-76.49 204.686-186.21 211.586zm-12.467-432.056c-128.391 0-232.479 104.292-232.479 232.965 0 128.668 104.088 232.974 232.48 232.974 128.41 0 232.499-104.306 232.499-232.974 0-128.673-104.088-232.965-232.5-232.965" fill="#1e4150"/><path d="M4098.298 2558.32H265.464v26h3832.834v-26" fill="#14293f"/><path d="M2195.846 896.388l61.986-1.012s-1.038 23.562-28.299 24.795c-33.202 1.51-33.687-23.783-33.687-23.783" fill="#fff"/></svg>