<svg xmlns="http://www.w3.org/2000/svg" height="2666.667" width="4266.667"><defs><clipPath id="a" clipPathUnits="userSpaceOnUse"><path d="M12531.7 2310.3h-692.3c-302 .4-558.1 1.3-705.4 3.2-252.4 3.2-296.6 224.4-298.7 367.6l2863.3 538.7c-29.8-328.1-47.2-537.6-47.4-577.4v-2.2c0-22.4 2-43.3 5.7-62.7 47.9-255.6 387.7-264 431.6-264-66-.2-813.7-2.5-1556.8-3.2"/></clipPath></defs><path d="M4266.666 2666.667H0V0h4266.666v2666.667" fill="#fff"/><path d="M490.022 2380.852s-449.964-483.116-76.096-1006.158c331.721-464.086 718.476-432.362 1002.233-244.037 120.854 80.21 469.292 9.885 765.85-462.334 404.448-643.978 1806.343-253.402 1550.74 737.371-123.705 479.467 376.46 496.894 121.613 976.174l-3364.34-1.016" fill="#ebf3fa"/><path d="M853.59 1726.4l293.077 318.44-318.439 293.08-293.079-318.44 318.44-293.08" fill="#dfebfd"/><path d="M853.59 1726.4l59.025 64.133-318.439 293.08-59.027-64.133 318.44-293.08" fill="#bed7fb"/><path d="M1783.591 471.956l218.35 31.145-144.9-98.766-7.356 31.66-53.116 9.618-12.978 26.343" fill="#9ec3f6"/><path d="M2001.95 503.092L1820.249 409.4l-178.1-8.954 359.8 102.647" fill="#cde0fb"/><path d="M1857.042 404.33l144.906 98.774-112.17-154.362-32.736 55.587" fill="#cde0fb"/><path d="M3004.612 902.72l-54.913 39.416-55.207-38.988c12.22-17.217 32.442-28.601 55.207-28.601 22.618 0 42.691 11.1 54.913 28.173M2949.68 778.508c-55.203 0-104.014 27.462-133.61 69.438l34.873 24.471c21.9-31.018 58.04-51.222 98.737-51.222 40.414 0 76.27 19.92 98.189 50.511l34.722-24.899c-29.748-41.407-78.275-68.299-132.911-68.299M2949.692 595.946c-116.807 0-220.115 58.056-282.71 146.841l34.846 24.474c54.924-77.692 145.567-128.62 247.864-128.62 101.465 0 191.532 50.076 246.595 126.77l34.569-24.901c-62.754-87.499-165.33-144.564-281.164-144.564" fill="#fff"/><path d="M2949.71 695.832c-83.103 0-156.813 41.117-201.63 104.151l34.864 24.473c37.125-51.933 98.042-85.942 166.766-85.942 68.144 0 128.616 33.438 165.897 84.663l34.574-24.76c-44.953-62.18-118.102-102.585-200.471-102.585" fill="#fff"/><path d="M1523.344 1443.985c-33.843 33.96-71.138 63.467-111.421 88.32-97.602-71.334-201.892-132.4-310.544-181.827 14.937-27.374 29.658-56.284 44.032-86.462 99.453 13.179 195.058 21.09 282.346 23.134 22.794.658 44.907.658 66.37.493 55.632-.659 105.166-3.961 147.597-9.903-29.726 61.578-69.511 117.377-118.38 166.245zm-618.793 150.8c45.317-23.76 90.85-78.307 125.915-128.573 18.085-25.92 36.16-54.614 54.002-85.588 102.876 46.588 201.794 103.828 294.72 170.508-153.17 81.853-325.659 91.12-474.637 43.653zM521.644 1239.32c47.141 1.895 134.536 9.04 246.17 34.447 7.987 1.82 15.97 3.724 23.947 5.669-5.745 33.512-9.986 65.535-12.603 95.629-4.959 57.026-5.311 122.787 10.596 169.733-48.413-27.253-92.808-60.973-132.65-100.813-59.39-59.387-105.093-128.928-135.46-204.665zm285.606-37.847a1646.2 1646.2 0 00-9.243 44.015c-7.512-1.81-15.027-3.608-22.549-5.32-127.068-28.919-222.418-34.805-266.62-35.795a598.911 598.911 0 01-24.093-101.133c86.569 33.291 184.012 65.239 322.505 98.233zm-392.009-160.98C298.19 983.374 244.698 928.238 268.637 889.103c19.315-31.692 89.644-53.155 197.287-61.078-21.701 73.232-29.248 149.378-24.763 224.69-8.916-3.961-17.5-8.093-25.92-12.224zM542.86 735.41l.014-.042c75.667 94.582 187.193 191.272 317.503 275.115-18.478 56.24-34.242 111.504-46.965 164.475-108.041-26.146-233.618-63.116-332.793-105.066-8.226-82.244.73-165.493 25.424-244.017 9.585-30.447 22.302-61.828 36.817-90.465zm-51.004-260.628c19.915-31.621 64.419-47.934 126.908-47.934 29.887 0 63.911 3.735 101.303 11.333 14.196 2.872 28.697 6.253 43.445 10.144h.039c-89.217 51.6-167.8 126.274-226.306 219.894l-.03.043c-55.218-81.99-71.818-151.501-45.359-193.48zm598.453-76.67c42.436 0 84.172 4.273 124.97 12.748-48.121 20.954-97.253 79.245-134.547 132.712-38.17 54.712-76.285 121.676-112.277 196.634C871.3 687.405 779.53 606.49 735.666 511.144c102.419-72.836 225.588-113.032 354.642-113.032zm433.036 179.459c79.443 79.443 132.146 174.86 158.802 274.648-141.201 10.329-270.584 7.075-386.237-9.663 18.353-74.987 30.709-145.53 36.127-207.84 5.98-68.804 5.26-150.313-22.641-196.182 80.821 31.056 153.012 77.916 213.949 139.037zm-270.128 293.027c-15.882 59.763-35.445 122.002-58.237 184.849a2325.429 2325.429 0 01-27.238 71.435c-85.616-31.438-176.489-76.401-265.827-131.934a2321.897 2321.897 0 0114.302-40.606c21.175-58.39 44.158-114.573 68.257-167.205 84.323 40.874 175.666 67.247 268.743 83.461zm7.607-431.554c18.787 6.805 28.321 33.772 33.014 55.193 7.415 33.842 8.755 81.395 3.878 137.494-5.34 61.404-17.637 131.155-35.937 205.406-89.98-15.478-179.898-41.002-262.687-81.183 35.284-73.586 72.594-139.206 109.896-192.673 32.217-46.18 63.726-81.82 91.116-103.043 14.29-11.078 33.524-22.935 50.365-22.935 3.584 0 7.06.538 10.355 1.74zm-553.237 93.322c49.227 100.864 144.101 183.958 246.196 239.08-24.733 53.891-48.291 111.419-69.954 171.153a2397.18 2397.18 0 00-11.804 33.334c-129.384-84.211-238.927-180.86-310.785-274.38l-.03-.042c37.925-64.687 87.34-121.818 146.377-169.145zm216.309 667.281a3351.776 3351.776 0 01-76.969-16.78c11.879-49.434 26.475-100.963 43.512-153.481 88.565 54.443 178.633 98.727 263.913 130.165-10.7 25.538-21.687 50.439-32.91 74.548-64.776-9.296-131.052-20.813-197.546-34.452zm145.868 136.844c-77.717-33.488-157.621-61.164-238.324-82.53a1615.078 1615.078 0 019.352-44.679c22.441 5.108 45.2 10.046 68.244 14.8 67.438 13.794 134.71 25.51 200.563 34.979-13.042 26.985-26.354 52.851-39.835 77.43zm-219.39 234.255c-18.787-6.814-28.323-33.774-33.014-55.202-7.415-33.852-8.757-81.385-3.877-137.492 2.466-28.375 6.433-58.535 11.772-90.086 76.998 20.52 153.25 46.912 227.5 78.712-16.725 28.84-33.635 55.586-50.545 79.826-32.217 46.188-63.724 81.814-91.116 103.04-17.332 13.427-41.933 28.014-60.72 21.202zm804.72-322.4c-44.071 7.93-99.052 12.553-163.272 13.213-99.66 1.216-214.107-6.654-334.718-22.55 10.15-22.086 20.098-44.795 29.802-68.012 37.428 12.521 73.749 22.44 108.39 29.471 39.68 8.05 75.907 12.026 108.228 12.026 75.777 0 130.05-21.873 156.862-64.432a111.101 111.101 0 0010.795-22.298h-38.625a76.67 76.67 0 01-2.038 3.467c-19.92 31.622-64.417 47.949-126.901 47.935-29.894 0-63.921-3.736-101.308-11.32-32.594-6.62-66.772-15.902-102.014-27.603a2336.067 2336.067 0 0027.074-71.053c23.544-64.913 43.7-129.274 60.006-191.074 132.135 19.482 270.195 20.062 402.808 10.074 8.376 40.676 12.62 82.3 12.62 124.59 0 82.387-16.016 162.283-47.708 237.566zm155.35-106.48l-50.354-1.16c16.186 20.967 19.822 40.294 9.734 56.635-10.06 16.667-34.168 30.377-70.147 40.776 27.235-72.482 40.945-148.912 40.945-227.337 0-169.596-65.988-335.6-190.522-459.78-120.545-120.544-283.49-190.522-459.79-190.522-98.999 0-194.656 21.944-281.65 63.894l-.086.042c-27.968-8.531-55.21-15.535-81.495-20.855-132.687-26.924-226.849-8.319-265.096 52.392-36.398 57.754-16.582 144.681 55.643 246.055l-.027.056c-16.138 29.811-31.671 65.182-43.089 99.053-135.707 8.093-208.35 31.976-234.763 75.227-30.708 50.355 11.227 117.927 145.448 183.632 18.49 9.084 38.302 17.997 59.103 26.91 16.078 141.287 80.436 278.22 186.06 383.847 59.764 59.6 129.268 106.493 206.698 139.347 237.198 100.054 519.96 53.2 713.044-139.347 58.107-58.106 104.174-125.8 136.687-200.752 66.2-13.703 109.792-35.159 127.124-63.554 12.054-19.653 10.569-41.441-3.467-64.56" fill="#adcbf9"/><path d="M1509.453 1243.36l-89.933 1069.307s-9.427 64.813 38.787 64.933c79.28.187 394.573 0 394.573 0s-59.653-13.493-58.933-43.853c.853-35.787 105.106-1100.507 105.106-1100.507l-389.6 10.12" fill="#d86713"/><path d="M1878.467 2358.2c-15.587.04-316.734.987-393.934 0-33.653-.427-39.546-29.92-39.826-49.013-.147-9.147 1.013-15.907 1.013-15.907l2.347-27.8 5.96-70.84 5.266-62.573 6.76-80.427 5.694-67.88 63.906-759.813 389.6-10.107s-43.906 445.573-74.96 769.92a70050.676 70050.676 0 00-9.826 103.133c-.987 10.334-1.934 20.427-2.854 30.254-2.88 30.693-5.52 58.866-7.813 83.76-1.2 13.106-2.32 25.293-3.32 36.453-3.973 43.747-6.293 71.68-6.32 76.987-.013 3.093.24 5.973.76 8.653 6.387 34.08 51.693 35.2 57.547 35.2" fill="#f99746"/><path d="M563.276 661.477l219.057 879.905 29.993 120.508L914.35 2071.73h1895.487L2433.785 661.477H563.275" fill="#f99746"/><path d="M563.272 661.48l-30.359 10.12L873.99 2102.347l40.364-30.614L563.272 661.48" fill="#ee9849"/><path d="M873.99 2102.345h1883.818l52.008-30.613H914.354l-40.363 30.613" fill="#d86713"/><path d="M1535.533 2378H1943.4v-19.373h-407.867zM2718.003 1811.866L2410.45 680.126H560.244V661.48h1873.54l306.528 1147.876-22.309 2.509" fill="#f1a34f"/><path d="M1839.72 2102.333l-2.107 14.814-383.586 77.493 5.266-62.573 2.507-29.734h377.92" fill="#d86713"/><g clip-path="url(#a)" transform="matrix(.13333 0 0 -.13333 0 2666.667)"><path d="M10835.3 2310.3h3253.2v909.5h-3253.2z" fill="#ec8432"/></g><path d="M1621.493 2358.653c-14.786 0-29.2-.013-42.906-.026h92.306c-16.626.013-33.24.026-49.4.026" fill="#e78b37"/><path d="M914.348 2071.733l-102.024-409.84L1747 1786.24l-832.647 285.493" fill="#ec8432"/><path d="M563.273 661.474h1870.496l303.5 1133.406H835.797L563.273 661.474" fill="#699dee"/><path d="M1912.333 1938.147c-5.4-27.787-32.306-50.32-60.106-50.32-27.8 0-45.947 22.533-40.547 50.32 5.4 27.8 32.32 50.333 60.107 50.333 27.8 0 45.96-22.533 40.546-50.333" fill="#d86713"/><path d="M2649.054 1745.76H897.694L699.35 955.654l-15.195-60.587-12.977-51.68-10.382-41.378-20.04-79.813h1726.117l1.203 4.388 20.786 75.425 11.409 41.377 14.253 51.681 16.706 60.587 217.824 790.106" fill="#e9f3fe"/><path d="M2649.054 1748.467H897.694L699.35 958.352l-15.195-60.587-12.977-51.681-10.382-41.377-20.04-79.813h1726.117l1.203 4.388 20.786 75.425 11.409 41.377 14.253 51.68 16.706 60.588 217.824 790.115" fill="#e9f3fe"/><path d="M2388.863 802.005H660.799l-20.04-79.814h1725.46l1.877 4.382 20.767 75.432" fill="#afcdfb"/><path d="M688.772 762.093c-2.085-8.36 3.005-15.146 11.372-15.146s16.84 6.786 18.927 15.146c2.085 8.374-3.006 15.16-11.372 15.16-8.367 0-16.84-6.786-18.927-15.16M739.108 762.093c-2.087-8.36 3.004-15.146 11.37-15.146 8.367 0 16.84 6.786 18.927 15.146 2.086 8.374-3.005 15.16-11.372 15.16-8.366 0-16.84-6.786-18.925-15.16M793.307 762.093c-2.086-8.36 3.006-15.146 11.373-15.146 8.367 0 16.84 6.786 18.925 15.146 2.087 8.374-3.005 15.16-11.372 15.16-8.366 0-16.84-6.786-18.926-15.16" fill="#e9f3fe"/><path d="M1443.253 1748.467h-173.169c-1.66-13.534-3.123-27.84-4.436-42.774-2.324-26.76-4.104-55.56-5.417-85.506-.316-6.92-.588-13.88-.844-20.907a3025.94 3025.94 0 01-.876-27.053 3893.073 3893.073 0 01-.996-46.72l-.015-.054c-.303-20.013-.453-40.16-.499-60.226v-.014c-.014-5.013-.014-10.026-.014-15.013v-.013c0-4.72.014-9.387.03-14.067.15-43.2.799-85.573 1.72-124.973 1.991-87.187 5.222-159.827 6.942-194.747v-.013a2941.537 2941.537 0 011.146-22.307l.046.027c.392.053 3.017.533 7.152 1.533a202.18 202.18 0 0111.257 3.093h.016a190.478 190.478 0 0112.901 4.414l.046.013c7.801 3 16.206 6.827 24.113 11.64.121.067.241.12.363.187 12.934 8.026 24.614 18.666 29.934 32.72 4.574 11.933 15.28 76.08 28.214 161.28.36 2.426.72 4.866 1.093 7.346 6.84 45.24 14.227 96 21.653 147.84 7.867 54.92 15.72 111.027 22.96 163.014a81465.52 81465.52 0 0116.68 121.28" fill="#2b478b"/><path d="M1394.76 1748.467h-201.573c-3.864-16.627-7.486-32.667-10.7-47.72-8.858-41.467-14.682-75.44-14.366-93.707.151-8.56 3.38-15.253 8.934-20.4 3.802-3.533 8.692-6.333 14.441-8.52 17.007-6.467 41.437-7.52 67.015-5.893 8.692.546 17.504 1.386 26.196 2.44 47.91 5.813 92.386 17.68 92.386 17.68s2.974 12.026 6.48 33.04c2.64 15.773 5.587 36.626 7.774 61.253a866.82 866.82 0 012.866 46.507c.174 5 .347 10.106.547 15.32" fill="#233862"/><path d="M1301.668 1607.28l-2.007 14.56-9.764 70.72-1.66 12.067-6.05 43.84h-210.068c-1.63-28.974-3.139-57.214-3.426-81.827-.029-2.72-.045-5.4-.045-8.027 0-37.053 3.26-64.533 13.883-71.48 12.042-7.853 51.985-5.706 94.524-.493 4.24.507 8.51 1.067 12.781 1.64 24.793 3.333 49.601 7.453 69.55 11 10.351 1.84 19.391 3.533 26.422 4.88 9.93 1.907 15.86 3.12 15.86 3.12" fill="#c65447"/><path d="M1068.65 1130.547s115.405-74.614 198.18-36.454c13.191 6.08 28.238 23.054 39.009 34.92 29.921 32.974 88.388 556.694 88.388 556.694s-165.967 56.213-325.578-19.067v-536.093" fill="#fff"/><path d="M1273.397 1092.2s116.83 47.88 132.656 84.667c15.827 36.786 67.254 262.706 67.254 289.2 0 26.493-89.547 5.92-103.96-36.8-11.974-35.48-52.352-144.48-73.644-213.427l-22.306-123.64" fill="#2b478b"/><path d="M1249.133 1128.68c-25.505 5-62.97-.333-90.401-18.4 12.384-29.587 17.461-52.947 19.268-68.053.105-.8.184-1.587.263-2.334.818-7.84.7-13.146.317-15.586h65.937s18.027 8.24 18.027 13.933c0 3.053.027 5.96.08 8.747.132 7.586.435 14.2.83 19.893 1.254 18.493 3.377 27.213 3.377 27.213s8.057 29.534-17.698 34.587" fill="#ffb27d"/><path d="M1263.455 1066.88c-49.955 9.64-78.955-17.653-85.455-24.653-.924-1-1.399-1.6-1.399-1.6.528-.267 1.082-.494 1.662-.734 18.594-7.533 60.794-1.546 84.361 7.094.132 7.586.435 14.2.83 19.893" fill="#e2915a"/><path d="M1161.683 1013.467c8.926 48.04 70.918 46.466 97.708 43.44 7.54-.827 12.282-1.8 12.282-1.8 8.502-2.267 13.244-15.654 15.448-33.2 4.374-34.707-1.152-85.654-7.013-98.694-8.827-19.6-25.448-40.813-87.877-25.506-62.44 15.306-42.003 54.2-30.548 115.76" fill="#ffb27d"/><path d="M1282.432 896.413c-8.533-11.813-26.625-26.24-43.056-35.133-35.3-19.093-80.48.6-80.67.68-50.991 22.427-64.307 61.44-37.273 122.213 28.588 64.254 55.808 57.027 55.808 57.027s-5.777-3.587-5.256-23.627c.031-1.133.076-2.08.128-2.906.263-4.107-1.184-8.214-4.252-10.96-6.333-5.654-9.421-22.747-4.117-27.507 6.397-5.747 15.39 1.24 18.261 6.6 2.51 3.787 7.004 5.12 11.191 2.467 15.87-10.027 5.561-30.094 20.727-42.374 15.165-12.28 45.938-1.973 68.689-11.76 29.78-11.093 6.25-25.813-.18-34.72" fill="#233862"/><path d="M1290.623 1748.467h-251.279c1.795-52.107 4.104-114.32 6.533-177.307.619-16.333 1.268-32.733 1.902-49 .286-6.893.542-13.747.814-20.6 5.554-139.88 11.062-266.2 12.223-273 2.641-15.4 5.13-28.507 7.832-39.893 7.892-33.134 17.701-51.307 39.099-66.934 2.082-1.586 19.194-10.2 34.269-17.72 12.313-6.106 23.268-11.453 23.6-11.6v-.013h.016c2.49 1.2 5.236 4.68 8.133 9.827 2.898 5.133 5.946 11.986 9.068 19.986 11.484 29.507 23.888 74.654 32.504 108.374l.031.106.016.067v.013c5.552 21.774 9.536 38.72 10.668 43.587 1.93 8.213 4.467 24.107 7.47 45.627v.053c4.06 29.36 8.902 69.173 14.034 114.373v.014c.528 4.653 1.055 9.346 1.583 14.08.605 5.413 1.222 10.893 1.841 16.426v.027c.197 1.773.393 3.56.575 5.333v.014a11025.35 11025.35 0 015.945 55.146l.015.054c1.689 15.48 25.17 26.693 26.8 42.466.12 1.147.241 3.467.392 6.694.301 6.68.664 17.253 1.101 29.493.181 5.44.377 11.227.59 17.12.92 26.227 2.051 54.96 3.334 68.787.06.653.12 1.48.165 2.493.152 2.76.272 6.813.378 11.92.212 10.827.317 26.333.348 43.987" fill="#2b478b"/><path d="M1119.212 1284.947c-.075.32-4.001 141.44 102.159 158.586 106.16 17.147 35.624 21.68 35.624 21.68s-199.74-8.493-203.038-13.76c-3.297-5.28 65.255-166.506 65.255-166.506M1208.908 1504.12s-1.992 1.413-5.816 3.88l-.199.12c-16.194 10.333-64.262 38.52-134.249 57.413a508.948 508.948 0 01-22.761 5.614c.62-16.32 1.266-32.72 1.898-48.987-9.244-.72-18.092-1.893-26.309-3.64.279-2.147.568-4.293.844-6.453a1668.5 1668.5 0 0126.284-10.507c6.95-2.72 13.675-5.307 20.044-7.693 28.75-10.92 50.06-18.32 50.06-18.32l85.1 26.946 5.104 1.627" fill="#233862"/><path d="M1231.432 1501.76s-10.933 2.733-28.34 6.24l-.185.04c-32.099 6.44-86.062 15.493-134.263 15-7.108-.08-14.097-.347-20.863-.88-9.244-.72-18.092-1.893-26.309-3.64-17.617-3.72-32.375-10.013-42.028-19.853-71.7-73.027 39.128-335.147 62.43-360.654 27.206-29.773 76.857-40.213 104.274-43.8 1.147-.146 2.241-.293 3.31-.426 9.64-1.147 15.825-1.387 16.167-1.4h.014s-2.15 6.92-5.75 18.64c-1.398 4.533-3.02 9.8-4.8 15.666-16.84 55.147-49.336 163.534-63.656 224.667-5.249 22.36-8.058 38.4-6.778 43.187 5.59 20.866 63.524 31.613 100.225 36.36 15.31 1.973 26.928 2.906 29.527 3.106.184 0 .356.014.54.04l2.124 8.707 5.077 20.88 4.997 20.507 4.287 17.613" fill="#2b478b"/><path d="M1431.413 1627.4l-246.252-10.373 49.96-306.88 246.252 10.373-49.96 306.88" fill="#f99746"/><path d="M1214.948 1434.053s47.936-3.333 50.34 7.84c5.604 26.04-41.21 47.427-56.377 45.96-15.166-1.453-4.995-55.533 6.037-53.8M1467.907 1382.84s-45.867-14.347-50.787-4.027c-11.48 24.04 29.12 55.68 44.213 57.76 15.094 2.08 17.707-52.88 6.574-53.733" fill="#ffb27d"/><path d="M1170.612 1076.987s-20.167 9.6-30.276 24.106c0 0 75.38 130.88 75.044 129.654-.337-1.227-25.481-137-44.768-153.76M1264.5 1078.827c6.639 2.506 19.372 15.546 22.241 22.76l8.962 114.253s-19.134-83.84-28.872-121.747c-2.476-9.64-2.02-12.56-2.331-15.266" fill="#233862"/><path d="M1316.75 1313.587s1.947-8.52 13.157-7.534c11.213.987 74.173 4.094 74.173 4.094s12.147-.2 11.027 7.573l-98.356-4.133" fill="#c65447"/><path d="M1244.517 1024.307s8.175 7.453 21.362 5.133c7.821-1.36 12.198-11.533 12.198-11.533s-15.029-2.707-33.56 6.4M2411.357 1119.804l-181.888.68-58.996-225.824 181.902-.666 58.982 225.81" fill="#fff"/><path d="M2307.276 923.654l-76.268.283-.877-3.34 76.267-.283.878 3.34M2319.446 932.93l-95.766.356-.853-3.344 95.751-.341.868 3.33M2345.766 978.91l-124.384.446-.863-3.339 124.369-.46.878 3.353M2348.656 989.9l-124.392.46-.865-3.328 124.378-.461.88 3.328M2351.525 1000.921l-124.371.448-.88-3.333 124.385-.461.866 3.346M2354.394 1011.932l-124.379.463-.88-3.337 124.378-.462.88 3.336M2357.284 1022.931l-124.386.463-.868-3.34 124.372-.464.882 3.341M2364.282 1049.73l-124.393.464-.856-3.336 124.365-.464.884 3.336M2367.151 1060.736l-124.37.465-.886-3.34 124.385-.465.871 3.34M2370.02 1071.76l-124.375.465-.873-3.344 124.376-.466.872 3.345M2372.91 1082.756l-124.38.466-.874-3.348 124.381-.451.873 3.333M2375.78 1093.77l-124.372.466-.875-3.352 124.386-.452.86 3.338" fill="#adcbf9"/><path d="M2484.663 1400.41l-181.898.665-58.977-225.818 181.884-.672 58.991 225.824" fill="#fff"/><path d="M2380.56 1204.258l-76.265.292-.876-3.345 76.28-.277.862 3.33M2392.731 1213.548l-95.753.354-.866-3.341 95.753-.354.866 3.34M2419.072 1259.501l-124.367.46-.89-3.343 124.396-.459.861 3.342M2421.94 1270.519l-124.38.457-.877-3.341 124.381-.458.877 3.342M2424.81 1281.528l-124.38.458-.862-3.341 124.379-.459.863 3.342M2427.7 1292.532l-124.378.459-.88-3.341 124.394-.459.864 3.34M2430.569 1303.548l-124.391.46-.865-3.342 124.376-.458.88 3.34M2437.567 1330.343l-124.39.46-.868-3.342 124.376-.459.882 3.341M2440.436 1341.348l-124.372.467-.869-3.346 124.373-.453.868 3.332M2443.326 1352.356l-124.37.467-.884-3.346 124.385-.454.87 3.333M2446.195 1363.376l-124.38.453-.87-3.333 124.365-.467.885 3.347M2449.064 1374.387l-124.376.454-.857-3.333 124.362-.467.871 3.346" fill="#adcbf9"/><path d="M2558.448 1682.909l-181.901.667-58.986-225.814 181.901-.68 58.986 225.827" fill="#fff"/><path d="M2454.345 1486.76l-76.265.28-.889-3.347 76.28-.278.874 3.346M2466.516 1496.042l-95.74.36-.893-3.347 95.77-.36.863 3.347M2492.857 1541.998l-124.368.453-.887-3.332 124.383-.467.872 3.346M2495.726 1553.016l-124.389.455-.857-3.348 124.373-.453.873 3.346M2498.616 1564.012l-124.379.466-.874-3.346 124.38-.454.873 3.334M2501.485 1575.025l-124.368.466-.89-3.347 124.398-.452.86 3.333M2504.354 1586.043l-124.373.453-.876-3.334 124.373-.466.876 3.347M2511.352 1612.843l-124.366.453-.894-3.346 124.382-.453.878 3.346M2514.242 1623.84l-124.385.467-.864-3.348 124.37-.453.88 3.333M2517.111 1634.852l-124.373.466-.88-3.346 124.388-.454.865 3.334M2519.98 1645.87l-124.376.452-.881-3.333 124.376-.467.88 3.347M2522.87 1656.88l-124.379.451-.866-3.332 124.363-.468.882 3.348" fill="#adcbf9"/><path d="M2319.273 1684.816l-636.178 2.346L1500 986.19l82.868-89.242 530.103-1.95 206.302 789.818" fill="#fff"/><path d="M1937.733 1013.453l-224.213.827-2.573-9.827 224.213-.826 2.573 9.826M1973.533 1040.747l-281.506 1.026-2.56-9.813 281.493-1.04 2.573 9.827M2050.933 1175.84l-365.64 1.347-2.573-9.814 365.64-1.36 2.573 9.827M2059.387 1208.213l-365.64 1.347-2.574-9.827 365.64-1.346 2.574 9.826M2067.84 1240.573l-365.64 1.36-2.56-9.826 365.627-1.347 2.573 9.813M2076.293 1272.947l-365.64 1.346-2.56-9.813 365.627-1.36 2.573 9.827M2084.747 1305.32l-365.64 1.347-2.56-9.827 365.64-1.347 2.56 9.827M2105.32 1384.08l-365.64 1.347-2.56-9.814 365.64-1.36 2.56 9.827M2113.773 1416.453l-365.64 1.347-2.56-9.827 365.64-1.346 2.56 9.826M2122.227 1448.813l-365.64 1.36-2.56-9.826 365.64-1.347 2.56 9.813M2130.68 1481.187l-365.627 1.346-2.573-9.826 365.64-1.347 2.56 9.827M2139.133 1513.56l-365.626 1.347-2.574-9.827 365.64-1.347 2.56 9.827M1500 986.187l106.08-.387-23.213-88.853z" fill="#adcbf9"/><path d="M3032.307 2234.56h-517.915v-182.92h519.573c40.392 0 73.14 32.747 73.14 73.134v34.986c0 41.306-33.491 74.8-74.798 74.8" fill="#fcecdb"/><path d="M3549.162 2126.894v27.52c0 14.706-3.941 28.478-10.865 40.319-13.892 23.814-39.716 39.827-69.285 39.827h-970.49c-6.422 0-11.626-5.213-11.626-11.615v-4.132c0-6.4 5.204-11.613 11.627-11.613h591.6a72.67 72.67 0 008.295-12.467c5.553-10.441 8.688-22.347 8.688-34.974v-34.986c0-6.428-.827-12.68-2.395-18.613a72.957 72.957 0 00-13.718-27.16h-592.47c-6.423 0-11.627-5.2-11.627-11.628v-4.106c0-6.426 5.204-11.626 11.627-11.626h975.388c34.381 0 63.362 23.04 72.355 54.52 1.894 6.587 2.896 13.546 2.896 20.734" fill="#699dee"/><path d="M3546.271 2106.16h-441.565A72.991 72.991 0 003091 2079h-592.467c-6.44 0-11.64-5.2-11.64-11.627v-4.108c0-6.426 5.2-11.626 11.64-11.626h975.377c34.375 0 63.354 23.04 72.361 54.521" fill="#548ee2"/><path d="M2514.385 2143.095l71.86 3.08-71.86 1.853v-4.933M2514.393 2171.8l170.956 3.08-170.956 1.852v-4.932" fill="#f4d2b8"/><path d="M2637.91 2376.454h551.326v-142.279H2633.43c-38.056 0-68.892 30.851-68.892 68.905 0 40.521 32.832 73.374 73.372 73.374" fill="#2b478b"/><path d="M3157.59 2376.453h627.487v-142.281h-629.066c-38.686 0-70.058 31.36-70.058 70.054v.585c0 39.562 32.091 71.642 71.637 71.642" fill="#fcecdb"/><path d="M3044.073 2376.452h762.798c5.878 0 10.632-4.759 10.632-10.64 0-5.88-4.754-10.64-10.632-10.64h-762.798c-5.902 0-10.657 4.76-10.657 10.64 0 5.881 4.755 10.64 10.657 10.64M3044.073 2255.451h762.798c5.878 0 10.632-4.759 10.632-10.64 0-5.878-4.754-10.64-10.632-10.64h-762.798c-5.902 0-10.657 4.762-10.657 10.64 0 5.881 4.755 10.64 10.657 10.64" fill="#2b478b"/><path d="M3785.077 2305.32l-84.758 2.387 84.758 1.44v-3.827M3785.077 2272.573l-201.654 2.387 201.654 1.44v-3.827" fill="#f4d2b8"/><path d="M3585.501 2274.48s8.641 6.12 11.507 16.174c.492 1.746.828 3.64.895 5.614.47 13.36 0 43.571 0 43.571l25.497-15.106 25.453 15.106v-40.959c0-7.747-2.194-15.267-6.246-20.2-1.947-2.4-4.343-4.2-7.051-4.2H3585.5" fill="#699dee"/><path d="M3585.492 2274.481s8.639 6.119 11.503 16.173l51.119.6s-1.992-14.4-12.556-16.773h-50.066" fill="#568cdb"/><path d="M3093.424 2052.024h563.318v-209.04h-565.157c-45.115 0-81.683 36.561-81.683 81.68v43.827c0 46.134 37.398 83.533 83.522 83.533" fill="#fcecdb"/><path d="M3023.16 1924.09v44.987c.135 19.215 10.76 35.882 26.4 44.802a52.521 52.521 0 0026.04 6.867h611.732c7.174 0 12.985 5.811 12.985 12.985v5.307c0 7.174-5.811 12.988-12.985 12.988H2630.54c-30.33 0-57.117-15.08-73.303-38.147-10.193-14.547-16.209-32.24-16.209-51.362v-35.492c0-13.107 2.997-25.507 8.354-36.546 13.598-28.12 42.361-47.494 75.687-47.494h1062.263c7.174 0 12.985 5.798 12.985 12.972v5.307c0 7.16-5.811 12.974-12.985 12.974h-613.594c-14.665 0-27.946 6.252-37.23 16.24-8.196 8.84-13.28 20.627-13.349 33.612" fill="#b5453c"/><path d="M3656.742 1947.504l-78.43 3.507 78.43 2.12v-5.627M3656.742 1899.4l-186.584 3.506 186.584 2.12v-5.627" fill="#f4d2b8"/><path d="M3472.071 1902.214s12.326 6.626 16.392 17.521a20.044 20.044 0 011.289 6.093c.677 14.48 0 47.24 0 47.24l36.345-16.374 36.257 16.374v-44.4c0-8.4-3.103-16.56-8.895-21.92-2.797-2.587-6.185-4.534-10.031-4.534h-71.357" fill="#f99746"/><path d="M3472.081 1902.215s12.301 6.627 16.387 17.52l72.843.654s-2.862-15.6-17.894-18.174h-71.336" fill="#ed7d2b"/><path d="M3103.24 1765.48c32.237 56.105 72.784 77.772 72.784 77.772h168.714s-266.101-120.587-241.498-77.773" fill="#233862"/><path d="M3232.8 2199.666c4.41 5.039 4.967 10.666 2.802 16.679l-.06.081c-4.032 11.12-17.301 23.547-32.755 35.948a159.034 159.034 0 00-5.264 4.372c-.397.36-.794.707-1.192 1.066-.298.268-.596.56-.894.815-14.4 13.278-8.978 16.32-34.86 43.253-29.498 30.693-49.798 31.24-55.579 28.452-4.886-2.385 5.046-18.666 16.05-36.96.537-.88 1.053-1.772 1.59-2.666 1.47-2.44 2.92-4.906 4.39-7.347 12.89-22.027 9.573-32.36 6.534-65.119-2.483-26.641-41.435-148.774-41.435-148.774l56.532-9.747s17.023 97.266 35.774 112.24c10.031 7.986 21.254 8.093 30.908 14.013.675.4 1.35.828 2.006 1.267 5.482 3.627 11.044 7.373 15.454 12.427" fill="#ffb27d"/><path d="M3232.8 2199.666c4.41 5.039 4.967 10.666 2.802 16.679l-.06.081c-4.926 11.106-17.877 23.467-32.815 35.826a155.335 155.335 0 00-5.204 4.494c-.397.36-.794.707-1.192 1.066-.298.268-.596.56-.894.815-14.4 13.278-8.978 16.32-34.86 43.253-29.498 30.693-49.798 31.24-55.579 28.452-4.886-2.385 5.046-18.666 16.05-36.96 5.74-2.105 32.418-12.947 52.58-38.746 17.757-22.666 29.596-51.786 41.713-68.654.675.4 1.35.828 2.006 1.267 5.482 3.627 11.044 7.373 15.454 12.427" fill="#233862"/><path d="M2776.975 2164.36c-3.497 17.454-28.36 14.533-56.15 7.748-27.806-6.787-21.192 1.28-60.737-3.094-39.562-4.386-51.526-19.132-52.738-25.014-1.091-5.213 18.457-7.053 39.424-9.465 2.632-.295 5.28-.627 7.93-.947 23.668-2.975 41-18.24 62.486-30.786 20.361-11.881 50.747-60.28 50.747-60.28l54.245 4.291s-28.464 43.24-39.459 62.028c-6.492 11.053-6.146 25.68-5.332 36.96.415 6.146.813 12.414-.416 18.559" fill="#ffb27d"/><path d="M2720.827 2172.107c-27.799-6.787-21.186 1.28-60.728-3.094-39.56-4.387-51.542-19.134-52.752-25.014-1.074-5.214 18.476-7.053 39.423-9.466l.205.4s23.725 16.813 56.638 17.6c26.827.653 55.257-7.027 73.784-6.734.426 6.146.818 12.415-.426 18.561-3.494 17.454-28.361 14.532-56.144 7.747M2984.843 1817.544l50.695 136.427 66.2 178.148s17.956 1.746 35.172-3.214c15.835-4.574 34.005-16.547 34.005-16.547s-18.364-191.28-52.66-301.08c-8.794-28.188-18.656-50.987-29.511-63.813-53.147-62.827-103.901 70.08-103.901 70.08" fill="#233862"/><path d="M3036.388 1600.869c33.218-10.72 127.945 3.04 223.11 21.665l19.943-32.867 205.563-16.053s67.83 150.427 30.69 246.281c-5.45 14.079-16.304 23.12-34.788 23.412h-3.008s-122.344-.065-162.079-.065c-102.225 0-216.352-70.268-231.108-73.228-24.173-4.826-33.829 43.495-58 94.24-24.173 50.746-227.143 224.733-227.143 224.733s-31.19.307-44.094-4.519c-13.84-5.2-18.92-11.946-18.92-11.946s224.92-447.494 299.834-471.653" fill="#2b478b"/><path d="M3280.66 1306.575c73.18 40.307 221.676 123.867 222.463 123.32 0 0 54.57 20.572 85.533 0 51.622-34.267 79.3-126.518-15.076-205.9-47.099-39.594-80.538-49.232-85.601-112.45-2.768-34.296-49.641-147.487-127.546-137.02-6.503.876-46.58 2.746-72.909 16.574-67.103 35.24-116.61 299.877-6.863 315.476" fill="#233862"/><path d="M3342.008 1272.266c-.317.207 36.009 12.615 60.317 1.852 22.852-10.099 40.17-47.709 39.832-47.728-10.391-.48-21.817-9.571-30.602-69.223l-4.436 1.588-74.446 26.788s5.385 23.89 8.87 46.634c2.957 19.096 4.52 37.39.465 40.09" fill="#ffb27d"/><path d="M3332.658 1185.547s5.393 23.89 8.884 46.633c42.766-7.698 59.55-50.302 65.57-73.422l-74.454 26.789" fill="#ed975d"/><path d="M3321.572 1209.256s101.863-13.67 92.37-76.973c-9.473-63.302-2.731-107.7-68.175-101.646-65.424 6.05-74.413 32.096-76.387 53.995-1.974 21.9 25.455 126.55 52.192 124.624" fill="#ffb27d"/><path d="M3273.088 1049.932s65.22 56.193 109.567 60.723c44.347 4.53 61.144-9.708 61.144-9.708s-26.156-21.705-41.875-56.734c-4.627-10.325-14.43-17.411-25.712-18.383-31.67-2.736-91.715-3.983-103.124 24.102" fill="#233862"/><path d="M3313.855 1044.899s-21.814 21.09-28.686 36.735c-6.628 15.095-8.6 51.202-3.334 65.543 0 0-33.972-66.086-14.74-98.194 20.392-34.047 46.76-4.084 46.76-4.084" fill="#233862"/><path d="M3256.231 1422.316c3.084 206.188.847 163.108 23.413 182.668 5.43 4.707 20.72 7.52 40.81 8.84 63.224 4.2 174.36-6.214 178.596-17.892 14.574-40.441 4.3-53.001 16.463-114.894 1.26-6.574 2.824-13.707 4.67-21.467 10.143-42.506 20.025-56.973-15.964-125.267-32.643-61.869-66.547-112.081-69.588-110.27-86.116 51.118-93.066 8.151-93.066 8.151s-86.833 89.555-85.334 190.131" fill="#fff"/><path d="M3035.538 1953.971l66.2 178.148s17.956 1.746 35.172-3.214c15.835-4.574 34.005-16.547 34.005-16.547s-18.364-191.28-52.66-301.08l-82.717 142.693" fill="#2b478b"/><path d="M3341.543 1232.179s-88.602 15.02-98.995 53.172l-71.649 262.423s45.04 8.094 65.868-12.72c20.807-20.8 72.406-193.053 72.406-193.053l32.37-109.822" fill="#fff"/><path d="M3320.44 1613.83c63.237 4.198 174.374-6.214 178.601-17.893 14.58-40.441 4.292-53 16.456-114.894l-30.496-85.867s5.046 95.628-23.164 120.774c-28.167 25.147-115.45 48.546-129.167 69.559-6.622 10.094-10.957 20.2-12.23 28.32" fill="#ebf3ff"/><path d="M3392.9 1573.612s-62.384-13.88-72.438-8.347c-10.075 5.533-34.678 25.692-37.76 32.707-3.08 7.013 22.419-5.333 30.703-7.548 5.37-1.44 19.504 3.468 26.498 5.802 29.433 9.812 47.48 4.758 47.48 4.758l5.516-27.372" fill="#ffb27d"/><path d="M3434.682 1223.989s83.738 5.16 112.732 45.597c40.811 56.924 121.781 299.519 75.387 331.877-52.269 36.442-237.822 9.533-237.822 9.533s-6.19-28.865 2.408-42.826c8.6-13.958 148.231-36.52 154.67-42.958 6.437-6.454-80.565-125.67-80.565-145.001 0-19.334-26.81-156.222-26.81-156.222" fill="#fff"/><path d="M3317.42 1582.63s-13.067 16.851-17.34 18.866c-4.295 2.013-7.063 1.506-7.063 1.506l8.813-15.854 15.59-4.518M3320.462 1565.263l-37.992 18.454s1.61 2.64 6.295 2.427c4.665-.214 16.48-4.533 16.48-4.533l15.217-16.348" fill="#ffb27d"/><path d="M3300.076 1627.32h-300.57l-90.438-224.852h300.124l90.884 224.853" fill="#f99746"/><path d="M2995.972 1618.558h396.927v8.76H2999.51l-3.538-8.76" fill="#ed7d2b"/><path d="M3075.367 1514.897c-2.268-7.907 2.306-14.308 10.215-14.308 7.908 0 16.14 6.4 18.409 14.308 2.267 7.906-2.306 14.306-10.215 14.306-7.89 0-16.141-6.4-18.409-14.306" fill="#fff"/><path d="M568.63 1715.627l-6.402 4.426c-6.833 4.747-16.247 3.04-20.983-3.8l-37.229-53.706c-4.736-6.84-3.03-16.254 3.804-20.987l9.168-6.36a2.963 2.963 0 014.105.747 2.95 2.95 0 01-.744 4.106l-9.168 6.36c-4.158 2.88-5.197 8.614-2.314 12.774l37.228 53.706c2.882 4.16 8.612 5.2 12.77 2.32l6.403-4.44c4.159-2.88 5.197-8.613 2.315-12.773l-24.714-35.653a2.95 2.95 0 01.744-4.107 2.94 2.94 0 014.107.747l24.713 35.653c4.736 6.827 3.031 16.24-3.804 20.987" fill="#afcdfb"/><path d="M609.44 1768.587l-11.476 7.96c-10.655 7.386-25.76 4.106-33.672-7.307l-55.97-80.76a2.953 2.953 0 01.745-4.107 2.963 2.963 0 014.105.747l55.97 80.747c6.06 8.746 17.48 11.36 25.46 5.826l11.477-7.946c7.98-5.534 9.542-17.147 3.484-25.894l-63.754-91.973c-6.058-8.747-17.478-11.36-25.46-5.827a2.94 2.94 0 01-4.105-.746 2.952 2.952 0 01.744-4.107c10.655-7.387 25.76-4.107 33.672 7.32l63.753 91.973c7.912 11.414 5.682 26.72-4.973 34.094M686.436 2190.36l1.381 11.373c1.474 12.147-7.206 23.227-19.35 24.694l-95.446 11.586c-12.144 1.467-23.222-7.213-24.696-19.346l-1.977-16.294a4.347 4.347 0 013.787-4.84c2.38-.28 4.544 1.414 4.833 3.787l1.976 16.293c.897 7.4 7.64 12.68 15.03 11.787l95.446-11.587c7.392-.893 12.675-7.64 11.777-15.026l-1.38-11.387c-.897-7.387-7.64-12.667-15.03-11.773l-63.36 7.693c-2.38.28-4.544-1.413-4.832-3.787a4.347 4.347 0 013.786-4.84l63.36-7.68c12.143-1.48 23.222 7.2 24.695 19.347" fill="#afcdfb"/><path d="M783.375 2173.6l2.474 20.4c2.298 18.933-12.336 36.333-32.621 38.8l-143.495 17.413c-2.38.294-4.544-1.413-4.833-3.786a4.347 4.347 0 013.787-4.84l143.494-17.414c15.534-1.88 26.77-14.946 25.05-29.133l-2.476-20.387c-1.72-14.186-15.758-24.186-31.29-22.306l-163.449 19.84c-15.533 1.893-26.77 14.96-25.048 29.133a4.349 4.349 0 01-3.787 4.84c-2.38.28-4.544-1.413-4.833-3.787-2.297-18.933 12.336-36.346 32.621-38.8l163.45-19.84c20.285-2.466 38.658 10.934 40.956 29.867" fill="#afcdfb"/><path d="M2312.84 839.725c0-7.305 5.912-13.232 13.217-13.232 7.32 0 13.232 5.927 13.232 13.232s-5.913 13.232-13.232 13.232c-7.305 0-13.218-5.927-13.218-13.232" fill="#f99746"/><path d="M4113.137 2385.707H254.96c-2.409 0-4.38-1.973-4.38-4.373v-1.493a4.396 4.396 0 014.383-4.387h3858.173a4.399 4.399 0 014.395 4.387v1.493c0 2.4-1.97 4.373-4.395 4.373" fill="#2e3552"/></svg>